<svg width="10" height="8" viewBox="0 0 10 8" fill="none" xmlns="http://www.w3.org/2000/svg">
<path fill-rule="evenodd" clip-rule="evenodd" d="M8.10444 0.237381C7.98194 0.367945 7.83956 0.51916 7.78804 0.573435C7.73651 0.627711 7.65507 0.713703 7.60705 0.764551C7.40119 0.982494 5.67097 2.81878 5.38148 3.12656C5.29695 3.21643 5.10009 3.4252 4.94402 3.59049C4.78795 3.75579 4.58198 3.97448 4.4863 4.07649C4.39063 4.17848 4.27024 4.30614 4.21879 4.36016C4.16735 4.41419 3.93656 4.65887 3.70594 4.90389L3.28665 5.34939L2.30357 4.36637C1.76289 3.82571 1.31559 3.38336 1.30959 3.38336C1.30357 3.38336 1.00646 3.67558 0.649332 4.03275L0 4.68215L1.6589 6.34107C2.5713 7.25348 3.32111 8 3.32515 8C3.33335 8 3.60948 7.70874 4.94453 6.29195C5.44796 5.75771 5.9853 5.18785 6.13863 5.02562C6.29196 4.86338 6.57458 4.56391 6.76667 4.36013C6.95876 4.15636 7.27799 3.81778 7.47608 3.60774C7.67417 3.3977 7.88045 3.1787 7.93447 3.12108C8.09302 2.95198 9.09981 1.88466 9.37868 1.59002C9.68659 1.26472 9.68319 1.26878 9.66309 1.25067C9.65478 1.24318 9.55957 1.15364 9.45152 1.0517C9.15869 0.775411 8.85047 0.485086 8.66026 0.306368C8.56721 0.218947 8.45634 0.114248 8.41386 0.0737026C8.37139 0.0331678 8.3345 0 8.3319 0C8.3293 0 8.22694 0.106816 8.10444 0.237381Z" fill="white"/>
</svg>
