<svg width="6" height="6" viewBox="0 0 6 6" fill="none" xmlns="http://www.w3.org/2000/svg">
<path fill-rule="evenodd" clip-rule="evenodd" d="M1.26261 1.26024C1.06123 1.46085 0.896484 1.6286 0.896484 1.63302C0.896484 1.63744 1.21207 1.95819 1.59781 2.34579C1.98355 2.73337 2.3134 3.0661 2.33083 3.08516L2.36253 3.11983L1.63274 3.84997C1.23135 4.25154 0.901487 4.58444 0.89969 4.58976C0.897906 4.59507 1.06515 4.76804 1.27136 4.97416L1.64628 5.34891L2.3765 4.61865C2.77811 4.21701 3.11198 3.88665 3.1184 3.8845C3.12484 3.88235 3.45733 4.20692 3.85726 4.60573C4.25719 5.00457 4.58939 5.33206 4.59549 5.33352C4.6044 5.33564 5.11464 4.83556 5.30444 4.6387L5.34931 4.59216L4.61298 3.85574L3.87666 3.11932L3.9799 3.01488C4.03669 2.95743 4.35948 2.63283 4.69722 2.29354C5.03495 1.95426 5.31949 1.66642 5.32952 1.65392C5.34612 1.63322 5.31587 1.59915 4.9934 1.27537C4.79851 1.07968 4.62818 0.913581 4.61492 0.906277C4.59396 0.894745 4.49518 0.988471 3.86122 1.62143C3.45995 2.02208 3.12882 2.35251 3.12538 2.35571C3.12193 2.35893 2.78907 2.03171 2.38567 1.62853C1.98228 1.22537 1.64694 0.895508 1.64047 0.895508C1.63402 0.895508 1.46397 1.05964 1.26261 1.26024Z" fill="white"/>
</svg>
