<svg width="6" height="6" viewBox="0 0 6 6" fill="none" xmlns="http://www.w3.org/2000/svg">
<path fill-rule="evenodd" clip-rule="evenodd" d="M5.00414 0.956011C4.93361 1.03119 4.85164 1.11825 4.82197 1.1495C4.79231 1.18075 4.74542 1.23026 4.71777 1.25954C4.59924 1.38502 3.60304 2.44229 3.43636 2.6195C3.38769 2.67124 3.27435 2.79145 3.18449 2.88662C3.09463 2.98179 2.97604 3.10771 2.92095 3.16644C2.86586 3.22516 2.79655 3.29866 2.76693 3.32977C2.7373 3.36087 2.60442 3.50175 2.47164 3.64283L2.23023 3.89933L1.66421 3.33334C1.3529 3.02205 1.09536 2.76736 1.09191 2.76736C1.08844 2.76736 0.917376 2.93561 0.711753 3.14126L0.337891 3.51516L1.29303 4.47031C1.81835 4.99564 2.25007 5.42546 2.2524 5.42546C2.25712 5.42546 2.41611 5.25776 3.18478 4.44202C3.47464 4.13442 3.78402 3.80632 3.8723 3.71291C3.96058 3.6195 4.12331 3.44708 4.2339 3.32975C4.3445 3.21242 4.52831 3.01748 4.64236 2.89655C4.75641 2.77561 4.87518 2.64952 4.90628 2.61635C4.99757 2.51898 5.57725 1.90446 5.73781 1.73482C5.91509 1.54752 5.91313 1.54986 5.90157 1.53943C5.89678 1.53511 5.84196 1.48356 5.77975 1.42487C5.61115 1.26579 5.43368 1.09863 5.32417 0.995732C5.2706 0.945398 5.20676 0.885116 5.1823 0.861771C5.15785 0.838433 5.13511 0.819336 5.13511 0.819336C5.13511 0.819336 5.07468 0.880837 5.00414 0.956011Z" fill="white"/>
</svg>
