<svg width="6" height="8" viewBox="0 0 6 8" fill="none" xmlns="http://www.w3.org/2000/svg">
<path fill-rule="evenodd" clip-rule="evenodd" d="M2.08459 0.904067C1.44994 1.1386 0.917345 1.5586 0.548711 2.11522C0.412816 2.32041 0.344988 2.44701 0.260904 2.65237C-0.16534 3.69334 -0.0253695 4.83977 0.637644 5.73796C1.01834 6.25369 1.53013 6.63268 2.13319 6.84544C2.51772 6.9811 2.99098 7.04315 3.41326 7.01325C4.13004 6.9625 4.83087 6.65164 5.3492 6.15452C5.47486 6.03402 5.65602 5.82347 5.74868 5.69028C5.83724 5.56297 5.84448 5.522 5.78909 5.46152C5.7439 5.41218 5.70163 5.41147 5.54764 5.45755C5.37989 5.50773 5.23151 5.53948 5.0817 5.55726C4.37184 5.64148 3.68518 5.47948 3.10499 5.09094C2.55787 4.72453 2.15883 4.19921 1.95487 3.57687C1.81294 3.14381 1.77755 2.75686 1.83781 2.29713C1.89374 1.87052 2.02277 1.50516 2.24477 1.14481C2.31664 1.02815 2.32304 1.00773 2.30412 0.955497C2.29191 0.9218 2.23404 0.87437 2.19964 0.869878C2.19047 0.868682 2.1387 0.884067 2.08459 0.904067Z" fill="#0051F4"/>
</svg>
