<svg width="8" height="8" viewBox="0 0 8 8" fill="none" xmlns="http://www.w3.org/2000/svg">
<path fill-rule="evenodd" clip-rule="evenodd" d="M3.86317 0.0221982C3.77384 0.0538232 3.66572 0.164526 3.63441 0.256433C3.5973 0.365339 3.59794 1.03518 3.63525 1.1447C3.68436 1.28882 3.84516 1.40245 4 1.40245C4.15484 1.40245 4.31564 1.28882 4.36475 1.1447C4.40206 1.03518 4.4027 0.365339 4.36559 0.256433C4.29827 0.0588544 4.06583 -0.0495206 3.86317 0.0221982ZM1.31533 1.07646C1.2868 1.08468 1.22595 1.128 1.18011 1.17271C1.08883 1.26174 1.06273 1.32509 1.06259 1.45798C1.06244 1.59443 1.11191 1.66582 1.41034 1.95981C1.69569 2.2409 1.75095 2.27745 1.89062 2.27745C2.09411 2.27745 2.28125 2.09031 2.28125 1.88682C2.28125 1.74476 2.24645 1.69284 1.95464 1.39939C1.76275 1.2064 1.65845 1.11329 1.60938 1.09114C1.5335 1.05687 1.40547 1.0505 1.31533 1.07646ZM6.38048 1.09795C6.32503 1.12559 6.22316 1.21696 6.03639 1.40654C5.7553 1.69189 5.71875 1.74715 5.71875 1.88682C5.71875 2.09031 5.90589 2.27745 6.10938 2.27745C6.25144 2.27745 6.30336 2.24265 6.59681 1.95084C6.7898 1.75895 6.88291 1.65465 6.90506 1.60557C6.94025 1.52765 6.94653 1.41214 6.92063 1.31889C6.8975 1.2356 6.76119 1.09814 6.67969 1.07592C6.57331 1.04692 6.46723 1.05473 6.38048 1.09795ZM3.76562 2.00565C3.43325 2.06664 3.31212 2.10481 3.08789 2.21924C2.54866 2.49442 2.16622 2.99857 2.03625 3.60557C2.01527 3.70357 2.00781 3.80595 2.00781 3.9962C2.00781 4.18645 2.01527 4.28882 2.03625 4.38682C2.20738 5.18603 2.81017 5.78882 3.60938 5.95995C3.79481 5.99965 4.20519 5.99965 4.39062 5.95995C5.18983 5.78882 5.79262 5.18603 5.96375 4.38682C5.98473 4.28882 5.99219 4.18645 5.99219 3.9962C5.99219 3.80595 5.98473 3.70357 5.96375 3.60557C5.79406 2.81304 5.19431 2.2084 4.40625 2.03534C4.29291 2.01045 3.85108 1.98998 3.76562 2.00565ZM0.253797 3.63157C0.116953 3.68001 0 3.84804 0 3.9962C0 4.14839 0.117219 4.31306 0.260234 4.36179C0.369141 4.3989 1.03898 4.39826 1.1485 4.36095C1.29262 4.31184 1.40625 4.15104 1.40625 3.9962C1.40625 3.84135 1.29262 3.68056 1.1485 3.63145C1.04278 3.59543 0.355672 3.59553 0.253797 3.63157ZM6.84509 3.6324C6.70725 3.68109 6.59375 3.84537 6.59375 3.9962C6.59375 4.15104 6.70738 4.31184 6.8515 4.36095C6.96102 4.39826 7.63086 4.3989 7.73977 4.36179C7.88278 4.31306 8 4.14839 8 3.9962C8 3.84401 7.88278 3.67934 7.73977 3.6306C7.63469 3.59479 6.94764 3.59618 6.84509 3.6324ZM1.75 5.74221C1.65406 5.77604 1.16019 6.25943 1.10175 6.37668C1.02559 6.52951 1.05398 6.6952 1.1775 6.8187C1.2655 6.9067 1.3317 6.93346 1.46178 6.9336C1.59823 6.93376 1.66962 6.88429 1.96361 6.58585C2.18569 6.36042 2.2332 6.30396 2.25509 6.23951C2.30689 6.08701 2.27469 5.94523 2.16283 5.83337C2.05128 5.72182 1.90156 5.68876 1.75 5.74221ZM5.97255 5.74095C5.8357 5.78939 5.71875 5.95742 5.71875 6.10557C5.71875 6.24524 5.7553 6.30051 6.03639 6.58585C6.33038 6.88429 6.40177 6.93376 6.53822 6.9336C6.67092 6.93346 6.73448 6.90734 6.82306 6.81653C6.9113 6.72609 6.93748 6.66146 6.93706 6.53526C6.93662 6.39773 6.89658 6.33964 6.59681 6.04156C6.36245 5.8085 6.30858 5.76267 6.24331 5.74078C6.14995 5.70946 6.06136 5.70953 5.97255 5.74095ZM3.86072 6.61678C3.76847 6.64935 3.66764 6.75262 3.63525 6.8477C3.59794 6.95721 3.5973 7.62706 3.63441 7.73596C3.68314 7.87898 3.84781 7.9962 4 7.9962C4.15219 7.9962 4.31686 7.87898 4.36559 7.73596C4.4027 7.62706 4.40206 6.95721 4.36475 6.8477C4.29711 6.64921 4.06716 6.54385 3.86072 6.61678Z" fill="#FFC700"/>
</svg>
