<svg width="20" height="11" viewBox="0 0 20 11" fill="none" xmlns="http://www.w3.org/2000/svg">
<path fill-rule="evenodd" clip-rule="evenodd" d="M8.09462 0.715794C8.77896 1.11671 9.40666 1.7333 9.83956 2.42941L10.5155 3.51689H15.2576H20V5.28048V7.04386L19.1671 7.11293L18.3341 7.18179L18.2697 9.01424L18.2051 10.8467H16.4373H14.6692V8.95871V7.07073H12.6771H10.6847L9.91464 8.27482C8.97309 9.74655 7.61486 10.6057 5.96165 10.7749C4.11876 10.964 2.96243 10.5439 1.67083 9.21636C0.0953663 7.59737 -0.357971 5.7949 0.277057 3.67548C0.627777 2.50449 2.32296 0.69336 3.45242 0.282225C4.83531 -0.220866 6.81146 -0.0362884 8.09462 0.715794ZM3.9906 4.16613C3.59923 4.5575 3.34136 5.04948 3.34136 5.40487C3.34136 6.27889 4.44794 7.29285 5.40192 7.29285C7.34832 7.29285 8.12061 4.71342 6.43498 3.84184C5.46656 3.34097 4.71625 3.44048 3.9906 4.16613Z" fill="black"/>
</svg>
