<svg width="19" height="19" viewBox="0 0 19 19" fill="none" xmlns="http://www.w3.org/2000/svg">
<path fill-rule="evenodd" clip-rule="evenodd" d="M7.62327 0.141118C7.16011 0.23945 6.46051 0.441038 6.06861 0.58912L5.35606 0.858335C2.12438 2.62122 1.0326 4.49977 0.220488 7.07854C0.14146 7.32949 0.0486977 8.18896 0.0143656 8.98844C-0.0651813 10.8362 0.175792 11.9818 0.984216 13.5996C1.4738 14.5791 1.78811 14.9992 2.75912 15.9717C3.76188 16.9758 4.1236 17.2429 5.16587 17.7487C6.72934 18.5074 7.81851 18.7573 9.55559 18.7556C12.2949 18.7531 14.7577 17.6638 16.5823 15.6477C18.1043 13.966 18.8762 12.0877 18.9849 9.80205C19.0656 8.10669 18.8291 6.89833 18.1362 5.46195C16.9234 2.94858 14.8506 1.15553 12.2225 0.346333C11.057 -0.0125346 8.81764 -0.112422 7.62327 0.141118ZM13.3671 6.23319C14.6259 6.79987 15.6553 7.29541 15.6547 7.33441C15.6539 7.39103 11.2739 10.1557 8.90108 11.5972L8.39879 11.9024L6.00292 10.8241L3.60706 9.74595L4.28723 9.32736C4.66125 9.09714 6.30829 8.06536 7.94716 7.03462C9.58603 6.00388 10.961 5.17006 11.0027 5.18172C11.0444 5.19338 12.1083 5.66652 13.3671 6.23319ZM8.52524 7.89111C8.04135 8.13519 7.94716 8.24363 7.94716 8.55728C7.94716 9.13924 8.48028 9.4595 9.54963 9.52001C10.9966 9.60176 12.0218 8.89102 11.4244 8.22018C10.8302 7.55297 9.49612 7.40152 8.52524 7.89111ZM15.6131 8.21836C15.7051 8.27679 14.3158 9.21749 12.0848 10.6074L8.40488 12.9L6.07068 11.844C4.78692 11.2632 3.73662 10.7473 3.73662 10.6975C3.73662 10.3862 4.37468 10.5599 6.16513 11.3587C7.28086 11.8564 8.27571 12.2636 8.37586 12.2636C8.47613 12.2636 10.0502 11.3308 11.8738 10.1907C13.6976 9.05063 15.2508 8.11874 15.3256 8.11977C15.4002 8.12094 15.5296 8.16525 15.6131 8.21836ZM15.6287 9.29665C15.5799 9.43916 8.57356 13.8183 8.39425 13.8183C8.20834 13.8183 3.97033 11.9014 3.81668 11.7477C3.73856 11.6696 3.77483 11.593 3.91605 11.5389C4.05532 11.4854 4.93047 11.8037 6.25452 12.3894C8.02424 13.1723 8.41382 13.3021 8.63717 13.1825C8.78396 13.104 10.3415 12.1404 12.0982 11.0412C14.9114 9.28111 15.7815 8.85111 15.6287 9.29665Z" fill="#6B6B6B"/>
</svg>
