<svg width="17" height="19" viewBox="0 0 17 19" fill="none" xmlns="http://www.w3.org/2000/svg">
<path fill-rule="evenodd" clip-rule="evenodd" d="M4.70697 0.387926C1.6926 1.11856 0 2.5156 0 4.27319C0 5.54703 1.16947 6.75288 3.18348 7.55627C4.47313 8.07063 5.06225 8.13787 8.27986 8.13787C11.4975 8.13787 12.0866 8.07063 13.3762 7.55627C16.356 6.36799 17.396 4.291 15.9008 2.51434C14.1179 0.395453 8.82457 -0.610173 4.70697 0.387926ZM0.0100364 8.62011C0.000251134 10.2831 0.0328685 10.3757 0.940893 11.2787C1.46227 11.7973 2.55296 12.4778 3.38721 12.805C4.70421 13.3216 5.31667 13.3956 8.27986 13.3956C11.243 13.3956 11.8555 13.3216 13.1725 12.805C14.0068 12.4778 15.0974 11.7973 15.6188 11.2787C16.5268 10.3757 16.5595 10.2831 16.5497 8.62011C16.5399 6.95862 16.5263 6.92124 16.1698 7.57835C15.3034 9.17461 12.0683 10.2841 8.27986 10.2841C4.49145 10.2841 1.25628 9.17461 0.389906 7.57835C0.0333705 6.92124 0.0198217 6.95862 0.0100364 8.62011ZM0.00878163 13.8507C0.000752676 15.3705 0.0735151 15.6193 0.750958 16.3909C3.5207 19.5455 13.039 19.5455 15.8088 16.3909C16.4862 15.6193 16.559 15.3705 16.5509 13.8507C16.5429 12.3596 16.5055 12.2314 16.2258 12.7349C15.7904 13.5195 14.3911 14.4253 12.7736 14.9703C10.8574 15.6158 5.70231 15.6158 3.78615 14.9703C2.16857 14.4253 0.769274 13.5195 0.333954 12.7349C0.0541953 12.2314 0.0168106 12.3596 0.00878163 13.8507Z" fill="#6B6B6B"/>
</svg>
