<svg width="21" height="19" viewBox="0 0 21 19" fill="none" xmlns="http://www.w3.org/2000/svg">
<path fill-rule="evenodd" clip-rule="evenodd" d="M4.87704 0.338374C4.85631 0.373298 5.28174 1.74184 6.24474 4.73762C6.47214 5.44508 6.67965 6.031 6.70589 6.03973C6.73209 6.04841 6.81969 5.94949 6.90051 5.81997C7.16963 5.38843 8.91846 2.62307 9.63599 1.49439C10.0254 0.88193 10.3328 0.36288 10.3193 0.341003C10.2882 0.290601 4.90691 0.288022 4.87704 0.338374ZM10.9951 0.3541C10.9951 0.38322 11.2329 0.77944 11.5236 1.23464C11.8143 1.68985 12.2129 2.31898 12.4093 2.63275C12.9317 3.46711 14.1514 5.39408 14.3484 5.69605C14.4418 5.83926 14.5368 5.95649 14.5595 5.95649C14.5822 5.95649 14.6284 5.86159 14.6622 5.74565C14.696 5.62967 14.9663 4.76465 15.263 3.82334C16.2053 0.833363 16.3438 0.376572 16.3203 0.338424C16.2822 0.27686 10.9951 0.292437 10.9951 0.3541ZM10.3208 0.952968C10.1379 1.23568 9.87669 1.64555 9.74037 1.86382C9.51267 2.22849 8.64711 3.59703 7.4898 5.42226C7.23491 5.82418 7.02641 6.17581 7.02641 6.20359C7.02641 6.2647 14.2501 6.27552 14.2878 6.2145C14.3095 6.17948 13.9635 5.62044 12.2551 2.9304C12.0212 2.56206 11.5798 1.86551 11.2743 1.38257C10.9688 0.89959 10.7041 0.489728 10.686 0.471721C10.6681 0.453713 10.5037 0.670302 10.3208 0.952968ZM3.86514 1.45743C3.50434 1.95376 2.57443 3.21931 1.79866 4.26971C1.02294 5.32007 0.398624 6.19629 0.411323 6.21683C0.451357 6.28157 6.38151 6.26262 6.38151 6.19773C6.38151 6.12605 6.12846 5.31441 5.37828 2.98C5.04948 1.95684 4.7436 0.998509 4.6985 0.850329C4.65346 0.7022 4.59512 0.575153 4.56888 0.56796C4.54268 0.560817 4.22599 0.961055 3.86514 1.45743ZM16.5768 0.611218C16.5224 0.772891 15.3361 4.54509 15.0985 5.31158C14.9506 5.78906 14.8387 6.19649 14.8499 6.21693C14.8612 6.23737 16.196 6.25414 17.8162 6.25414C19.4364 6.25414 20.7723 6.23737 20.785 6.21693C20.7976 6.19649 20.6517 5.96765 20.4608 5.70845C20.1038 5.22383 19.4459 4.33242 18.1882 2.62932C17.7926 2.09361 17.2903 1.40778 17.072 1.10522C16.8538 0.802656 16.6577 0.553772 16.6364 0.552185C16.6151 0.550548 16.5883 0.577138 16.5768 0.611218ZM17.6503 6.55179L14.7064 6.57659L14.3673 7.64316C14.1808 8.22978 13.8506 9.27899 13.6334 9.97474C12.7074 12.9417 11.2055 17.7264 11.068 18.1477C11.0106 18.3235 11.208 18.112 12.0631 17.0811C12.578 16.4604 13.3703 15.506 13.8239 14.9604C14.2774 14.4147 15.3623 13.1087 16.2348 12.0583C17.1072 11.0078 18.484 9.35042 19.2944 8.37518C20.1048 7.39993 20.7678 6.59331 20.7678 6.58269C20.7678 6.53229 20.3973 6.52862 17.6503 6.55179ZM0.449621 6.59534C0.515699 6.7023 3.45513 10.2202 6.70649 14.0837C7.19622 14.6656 7.73085 15.3044 7.89455 15.5034C9.1038 16.9731 10.1788 18.2148 10.1903 18.1554C10.1979 18.1164 9.98871 17.415 9.72549 16.5968C9.46227 15.7786 8.98469 14.2832 8.66412 13.2737C8.3436 12.2642 7.85323 10.7238 7.57443 9.85072C7.29558 8.97762 6.945 7.87821 6.79534 7.40752L6.52319 6.55179H3.47294C1.73333 6.55179 0.434242 6.57049 0.449621 6.59534ZM6.85601 6.6634C6.87506 6.72482 7.1796 7.67913 7.53266 8.78415C8.14458 10.6991 9.07483 13.6114 10.1348 16.9306C10.4024 17.7687 10.6362 18.4384 10.6544 18.4188C10.6885 18.3821 11.09 17.1365 11.6652 15.2828C11.8473 14.6962 12.149 13.7363 12.3357 13.1497C12.5224 12.563 12.8239 11.6031 13.0056 11.0165C13.3257 9.98273 14.2754 6.96447 14.3674 6.68821L14.4129 6.55179H10.6171H6.82128L6.85601 6.6634Z" fill="#2D66FD"/>
<path fill-rule="evenodd" clip-rule="evenodd" d="M10.3198 0.952509C10.1369 1.23523 9.87572 1.64509 9.7394 1.86336C9.5117 2.22803 8.64614 3.59657 7.48883 5.4218C7.23394 5.82372 7.02544 6.17535 7.02544 6.20313C7.02544 6.26424 14.2491 6.27506 14.2869 6.21404C14.3085 6.17902 13.9625 5.61998 12.2541 2.92994C12.0202 2.5616 11.5789 1.86505 11.2733 1.38211C10.9678 0.899131 10.7031 0.489269 10.6851 0.471261C10.6671 0.453254 10.5027 0.669842 10.3198 0.952509ZM6.85504 6.66294C6.87409 6.72436 7.17863 7.67867 7.53169 8.78369C8.14361 10.6987 9.07386 13.6109 10.1338 16.9301C10.4015 17.7682 10.6353 18.4379 10.6534 18.4184C10.6875 18.3816 11.089 17.136 11.6642 15.2823C11.8463 14.6957 12.148 13.7358 12.3347 13.1492C12.5215 12.5626 12.8229 11.6027 13.0046 11.0161C13.3247 9.98227 14.2744 6.96401 14.3664 6.68775L14.4119 6.55132H10.6161H6.82031L6.85504 6.66294Z" fill="#023FDD"/>
</svg>
