<svg width="18" height="11" viewBox="0 0 18 11" fill="none" xmlns="http://www.w3.org/2000/svg">
<path fill-rule="evenodd" clip-rule="evenodd" d="M8.70106 0.00507986C5.63344 0.106721 2.72374 1.71008 0.437562 4.55865C-0.204568 5.35873 -0.187475 5.45309 0.80783 6.60276C2.83481 8.94405 5.28129 10.3422 7.89767 10.6544C8.47928 10.7238 9.52072 10.7238 10.1023 10.6544C12.8796 10.323 15.4795 8.75733 17.5624 6.16197C18.2046 5.3619 18.1875 5.26754 17.1922 4.11787C14.8025 1.35757 11.7983 -0.0975456 8.70106 0.00507986ZM9.75165 1.65205C10.1125 1.72706 10.3132 1.79695 10.6651 1.97016C11.7303 2.49443 12.4644 3.44673 12.7137 4.62752C12.7941 5.0084 12.7952 5.73551 12.7159 6.08921C12.5359 6.89252 12.2359 7.43892 11.6573 8.0176C11.0786 8.59625 10.5322 8.89621 9.72889 9.07625C9.37519 9.15552 8.64809 9.1544 8.2672 9.074C6.74446 8.75255 5.60777 7.61586 5.28632 6.09311C5.19755 5.67259 5.20363 4.98488 5.29986 4.56231C5.76262 2.53016 7.7443 1.23472 9.75165 1.65205ZM8.63072 3.35405C7.82023 3.53025 7.17908 4.1651 7.01305 4.95586C6.94668 5.27207 6.94721 5.44127 7.01565 5.77261C7.09985 6.18033 7.25199 6.46025 7.56018 6.77449C7.86314 7.08335 8.18107 7.25899 8.59657 7.34702C8.90543 7.41244 9.09373 7.41251 9.40445 7.34727C10.1233 7.19632 10.7079 6.65959 10.9556 5.92303C11.0556 5.62567 11.0473 5.06742 10.9379 4.73331C10.7396 4.12803 10.2679 3.64737 9.66728 3.4385C9.38578 3.34058 8.88158 3.29954 8.63072 3.35405Z" fill="white"/>
</svg>
