<svg width="14" height="18" viewBox="0 0 14 18" fill="none" xmlns="http://www.w3.org/2000/svg">
<path fill-rule="evenodd" clip-rule="evenodd" d="M5.76158 0.0676039C4.34813 0.317146 3.10766 1.12691 2.33075 2.3072C2.04815 2.73656 1.89908 3.03744 1.74841 3.48263C1.51768 4.16443 1.45116 4.70802 1.44981 5.92354L1.44902 6.62217H0.841811H0.234603L0.117302 6.73947L0 6.85678V11.6355C0 16.1625 0.00331198 16.4248 0.0628943 16.6156C0.21135 17.0912 0.571086 17.451 1.04671 17.5994C1.23801 17.6591 1.51912 17.6623 6.62409 17.6623C11.7291 17.6623 12.0102 17.6591 12.2015 17.5994C12.6771 17.451 13.0368 17.0912 13.1853 16.6156C13.2449 16.4248 13.2482 16.1625 13.2482 11.6355V6.85678L13.1309 6.73947L13.0136 6.62217H12.4064H11.7992L11.7984 5.92354C11.797 4.70802 11.7305 4.16443 11.4998 3.48263C10.9786 1.94274 9.71605 0.717144 8.1428 0.223926C7.42267 -0.0018455 6.49858 -0.0624973 5.76158 0.0676039ZM7.3486 2.31438C7.87801 2.44803 8.3578 2.73276 8.75056 3.14629C9.04567 3.45707 9.25489 3.79762 9.38675 4.18199C9.53196 4.60521 9.55608 4.83081 9.55635 5.76829L9.55663 6.62217H6.62409H3.69155L3.69182 5.76829C3.69196 5.29863 3.70825 4.81349 3.72805 4.69015C3.90386 3.59407 4.71452 2.67025 5.78621 2.34474C6.27318 2.19683 6.83937 2.18583 7.3486 2.31438ZM7.05293 9.64548C7.30664 9.73191 7.48867 9.84603 7.66221 10.0274C7.94559 10.3237 8.07311 10.632 8.07311 11.0209C8.07311 11.4494 7.95263 11.747 7.65355 12.0574L7.48594 12.2313L7.60307 13.2778C7.72979 14.4099 7.72741 14.4986 7.56702 14.6247C7.48211 14.6915 7.43136 14.6953 6.62409 14.6953C5.81681 14.6953 5.76606 14.6915 5.68116 14.6247C5.52076 14.4986 5.51838 14.4099 5.6451 13.2778L5.76223 12.2313L5.59463 12.0574C5.29554 11.747 5.17507 11.4494 5.17507 11.0209C5.17507 10.3977 5.54923 9.88592 6.17558 9.65242C6.38293 9.57514 6.83599 9.57155 7.05293 9.64548Z" fill="#35CB00"/>
</svg>
