<svg width="19" height="18" viewBox="0 0 19 18" fill="none" xmlns="http://www.w3.org/2000/svg">
<path fill-rule="evenodd" clip-rule="evenodd" d="M8.70409 0.0424604C8.38864 0.166168 8.17282 0.37196 8.06475 0.652103C8.00085 0.817824 7.99799 0.978072 7.99799 4.39102V7.9568L8.07965 8.12256C8.18536 8.33718 8.4153 8.56662 8.61583 8.65753C8.84908 8.7633 9.24916 8.76066 9.47003 8.65185C9.68157 8.54766 9.89513 8.33411 9.99932 8.12256L10.081 7.9568V4.37337V0.789933L9.99674 0.603559C9.89315 0.37429 9.62904 0.128569 9.40369 0.0517809C9.21315 -0.0131446 8.85798 -0.0178754 8.70409 0.0424604ZM3.48668 1.05603C3.41321 1.07438 3.30567 1.11393 3.24766 1.14393C2.99125 1.27654 2.27015 2.01741 1.83244 2.59796C-0.891432 6.21084 -0.544915 11.2448 2.64741 14.4371C4.08506 15.8748 5.93344 16.7788 7.94754 17.0293C8.46571 17.0937 9.45541 17.1018 9.98629 17.0458C12.1767 16.815 14.301 15.7348 15.7374 14.1214C17.686 11.9328 18.4649 9.10922 17.9005 6.27983C17.7318 5.43424 17.3899 4.47911 16.9929 3.74455C16.7938 3.3759 16.3079 2.65438 16.0494 2.34334C15.6293 1.83788 15.0065 1.237 14.7954 1.13355C14.3877 0.933765 13.8716 1.04279 13.5624 1.39407C13.3902 1.58969 13.3114 1.81123 13.3114 2.09956C13.3114 2.44806 13.3921 2.58659 13.9026 3.11426C14.1503 3.37018 14.4445 3.70173 14.5564 3.85103C15.1939 4.7011 15.6308 5.67615 15.8388 6.71284C15.9659 7.3466 15.9972 8.36775 15.9083 8.98227C15.7534 10.0526 15.3865 11.0125 14.7904 11.9068C13.7107 13.5267 12.036 14.5878 10.0442 14.914C9.56814 14.992 8.54349 14.9942 8.06281 14.9183C6.25154 14.6324 4.67652 13.717 3.58751 12.3172C2.87086 11.396 2.44925 10.4578 2.20709 9.24532C2.11463 8.78255 2.09532 7.66536 2.17062 7.13886C2.39675 5.55795 3.01967 4.31049 4.18462 3.10564C4.72298 2.54882 4.78085 2.43987 4.75987 2.02235C4.74349 1.69554 4.65343 1.50083 4.42653 1.30161C4.17607 1.08169 3.78892 0.980544 3.48668 1.05603Z" fill="white"/>
</svg>
