<svg width="15" height="19" viewBox="0 0 15 19" fill="none" xmlns="http://www.w3.org/2000/svg">
<path fill-rule="evenodd" clip-rule="evenodd" d="M6.60074 0.0245986C5.86763 0.118052 5.01089 0.451129 4.37786 0.888729C3.98971 1.15707 3.36425 1.79106 3.11519 2.16868C2.1322 3.65882 2.00014 5.51623 2.76573 7.08367C3.61185 8.81597 5.29252 9.86828 7.21318 9.86828C10.527 9.86828 12.8748 6.72451 11.9491 3.52698C11.8238 3.09424 11.5806 2.5767 11.3108 2.16868C11.0824 1.82318 10.5351 1.25256 10.1643 0.9732C9.608 0.554155 8.77903 0.19209 8.09782 0.0706904C7.7035 0.000418539 6.96789 -0.0222644 6.60074 0.0245986ZM3.81074 11.0796C1.91313 12.7072 1.01901 13.8975 0.476886 15.5178C0.201697 16.3403 0 17.571 0 18.4276V18.76H7.21318H14.4264V18.4081C14.4264 17.552 14.2141 16.3081 13.9248 15.4693C13.5053 14.2524 12.9228 13.3216 11.9569 12.3245C11.6252 11.9821 10.4341 10.9014 10.1118 10.6506C10.0517 10.6038 9.98649 10.6177 9.73866 10.7301C8.50439 11.2897 7.12186 11.4344 5.85411 11.1365C5.55152 11.0653 4.79364 10.789 4.42318 10.6146C4.39823 10.6029 4.12263 10.8121 3.81074 11.0796Z" fill="#6B6B6B"/>
</svg>
