<svg width="18" height="19" viewBox="0 0 18 19" fill="none" xmlns="http://www.w3.org/2000/svg">
<path fill-rule="evenodd" clip-rule="evenodd" d="M8.44615 0.0122847C8.36014 0.0364384 8.28138 0.0950347 7.96178 0.372708C6.45329 1.68324 4.45916 2.55185 2.36391 2.81102C1.97722 2.85885 1.21796 2.895 0.719053 2.88936C0.325693 2.88488 0.298632 2.89153 0.166989 3.02497C0.0443593 3.14928 0.0112342 3.23878 0.00174003 3.47149C-0.00913436 3.738 0.0334431 5.76319 0.0605454 6.26797C0.120647 7.38772 0.175438 7.99117 0.290999 8.80616C0.686869 11.5979 1.54086 13.6911 2.96273 15.355C3.20302 15.6361 3.72185 16.1555 4.01274 16.4061C5.09539 17.3387 6.52832 18.1196 8.12002 18.6446C8.55684 18.7887 8.56058 18.7889 8.86829 18.6946C9.75779 18.4219 10.8948 17.9192 11.6562 17.4621C14.3081 15.8701 15.9184 13.475 16.634 10.0582C16.9671 8.4682 17.1135 6.73417 17.1295 4.19234C17.1351 3.30373 17.1342 3.28048 17.091 3.18855C17.0667 3.13679 17.0113 3.0595 16.968 3.0168C16.8368 2.88737 16.7763 2.878 16.0791 2.87886C15.1924 2.87995 14.5853 2.81598 13.7514 2.63358C13.3952 2.55568 13.3392 2.54098 12.9078 2.41216C11.5275 1.99996 10.175 1.24705 9.06509 0.272873C8.95118 0.172912 8.82391 0.073725 8.78227 0.0524781C8.68589 0.00331332 8.54015 -0.0141275 8.44615 0.0122847ZM8.73585 1.39687C10.1884 2.5982 12.1165 3.45959 14.0784 3.78365C14.3219 3.82389 14.6482 3.8709 14.8035 3.88813C15.0748 3.91826 15.7707 3.96197 15.9823 3.9622L16.0841 3.96231L16.0703 4.67855C16.0121 7.68484 15.7682 9.55285 15.213 11.2462C14.9 12.2006 14.481 13.0788 13.9871 13.8158C13.2236 14.955 12.1538 15.9407 10.9033 16.6573C10.349 16.9749 9.47326 17.3667 8.84599 17.5776L8.57005 17.6703L8.30422 17.5797C7.64753 17.3558 6.82116 16.9868 6.26081 16.6672C3.91496 15.3293 2.41924 13.2823 1.6883 10.4094C1.29222 8.85263 1.12507 7.28031 1.07381 4.62901L1.06103 3.96778L1.4024 3.95363C3.30693 3.8746 4.90611 3.46185 6.53267 2.62948C7.18052 2.29796 7.92629 1.80641 8.42524 1.38206C8.5 1.31849 8.56449 1.26604 8.56855 1.26554C8.57263 1.26504 8.64791 1.32413 8.73585 1.39687ZM8.24232 4.65341C6.64746 4.77506 5.22329 5.73004 4.50558 7.15911C3.64663 8.86936 3.95506 10.9384 5.2786 12.3449C6.20412 13.3284 7.64345 13.8768 8.96896 13.7509C11.3599 13.5238 13.1498 11.5784 13.1513 9.20525C13.1519 8.15449 12.7946 7.14461 12.1325 6.3254C11.9794 6.13601 11.6233 5.78222 11.4366 5.63406C10.7842 5.11627 9.95725 4.7686 9.15717 4.67575C8.87638 4.64315 8.49801 4.63392 8.24232 4.65341ZM9.31234 5.3628C10.6288 5.59777 11.7424 6.50505 12.2522 7.75795C12.7153 8.89604 12.6005 10.2292 11.949 11.2802C11.3052 12.3186 10.2168 12.9963 8.99288 13.1208C7.39627 13.2831 5.84713 12.432 5.11256 10.9888C4.82161 10.4172 4.69327 9.86549 4.69661 9.20084C4.70004 8.522 4.82945 7.99863 5.14366 7.39291C5.44387 6.81416 5.92779 6.28832 6.50743 5.911C6.96677 5.61199 7.5827 5.39448 8.17429 5.32238C8.43205 5.29095 9.02847 5.31215 9.31234 5.3628ZM9.0891 8.97584L7.71403 10.3506L7.07629 9.71308L6.43855 9.07559L6.19291 9.32125L5.94728 9.56689L6.83061 10.4502L7.71397 11.3336L9.3348 9.71319C10.2262 8.82197 10.9556 8.08728 10.9556 8.08054C10.9556 8.06611 10.5014 7.61391 10.4793 7.60632C10.471 7.60347 9.84539 8.21976 9.0891 8.97584Z" fill="#6B6B6B"/>
</svg>
