<svg width="14" height="19" viewBox="0 0 14 19" fill="none" xmlns="http://www.w3.org/2000/svg">
<path d="M2.54415 4.21843L0.110637 5.93035C0.0412745 5.97914 0 6.057 0 6.1418V13.5641C0 13.981 0.432098 14.0852 0.648148 14.0852H2.72223C3.24074 14.0852 3.37037 13.5641 3.37037 13.3035V4.57517C3.37037 4.18775 2.92253 4.14537 2.65115 4.17618C2.61241 4.18057 2.57604 4.196 2.54415 4.21843Z" fill="white"/>
<path d="M11.4559 15.875L13.8894 14.1631C13.9587 14.1143 14 14.0364 14 13.9516V6.52931C14 6.11244 13.5679 6.00822 13.3519 6.00822H11.2778C10.7593 6.00822 10.6296 6.52931 10.6296 6.78986V15.5182C10.6296 15.9057 11.0775 15.948 11.3488 15.9172C11.3876 15.9128 11.424 15.8974 11.4559 15.875Z" fill="white"/>
<path d="M7.75284 1.07464L5.56002 2.54378C5.48783 2.59215 5.4445 2.67334 5.4445 2.76024V18.5145C5.4445 18.6584 5.56105 18.7751 5.70495 18.7751H6.48154C6.67631 18.7751 6.88633 18.6985 6.98276 18.6532C6.99436 18.6477 7.00499 18.6413 7.01546 18.6339C7.45355 18.3254 8.35063 17.6783 8.55561 17.4723C8.76302 17.2639 8.81487 17.0381 8.81487 16.9512V1.57899C8.81487 0.868786 8.15965 0.924054 7.80601 1.04767C7.78714 1.05427 7.76945 1.06352 7.75284 1.07464Z" fill="white"/>
</svg>
