<svg width="19" height="19" viewBox="0 0 19 19" fill="none" xmlns="http://www.w3.org/2000/svg">
<path fill-rule="evenodd" clip-rule="evenodd" d="M8.5766 0.00998905C8.32443 0.0237889 7.87474 0.0771941 7.56629 0.129969C5.32452 0.513502 3.28265 1.77274 1.88673 3.63257C0.793014 5.08974 0.154557 6.79806 0.0148024 8.64125C-0.0145724 9.02879 0.00212867 10.0286 0.0441581 10.3989C0.0810149 10.7234 0.150663 11.1413 0.218613 11.4456C1.03939 15.1214 3.95829 17.951 7.56629 18.5682C8.14398 18.6671 8.42396 18.6897 9.07286 18.69C9.70853 18.6903 9.99438 18.668 10.53 18.5766C11.9518 18.3338 13.4643 17.6549 14.4797 16.8039C14.8158 16.5222 14.8597 16.4625 14.8901 16.2457C14.9572 15.7675 14.6523 15.3388 14.1906 15.2623C13.9514 15.2226 13.7296 15.2957 13.5098 15.4865C13.2751 15.6901 12.7554 16.0157 12.3104 16.2379C10.5815 17.101 8.57448 17.2331 6.73471 16.6048C6.07906 16.3809 5.46204 16.0651 4.87922 15.6553C4.08776 15.0986 3.35414 14.3268 2.84005 13.5101C2.15101 12.4153 1.75547 11.2041 1.65576 9.88354C1.62851 9.52264 1.64353 8.7906 1.68535 8.44248C1.86896 6.91354 2.46778 5.50433 3.41968 4.36104C4.54079 3.01452 6.05904 2.1135 7.74632 1.79338C8.22981 1.70164 8.43154 1.68569 9.10149 1.68618C9.76946 1.68666 9.92494 1.69912 10.428 1.79246C11.5645 2.00329 12.6709 2.50469 13.5965 3.22831C14.7856 4.15794 15.6897 5.45526 16.1606 6.90766C16.6901 8.54072 16.6696 10.2668 16.1009 11.9163C16.0197 12.1519 15.9416 12.341 15.758 12.7466C15.5688 13.1644 15.4384 13.5152 15.4384 13.6063C15.4384 13.8178 15.5529 14.0812 15.708 14.2263C15.7597 14.2746 15.8598 14.3415 15.9304 14.375C16.0504 14.4318 16.0722 14.4358 16.2686 14.4358C16.4603 14.4358 16.4881 14.4311 16.5883 14.3819C16.6486 14.3523 16.7456 14.2846 16.8038 14.2314C16.8989 14.1445 16.9313 14.0911 17.1245 13.7031C17.6772 12.5934 17.9677 11.6308 18.113 10.4275C18.163 10.0138 18.1821 9.11042 18.1501 8.67152C18.0077 6.71498 17.3097 4.9197 16.1041 3.40937C14.3676 1.23396 11.7499 -0.0266197 9.02515 0.000426506C8.84143 0.00223976 8.63959 0.00655341 8.5766 0.00998905ZM6.8412 5.24629C6.77904 5.26828 6.69314 5.31037 6.65033 5.33984C6.5686 5.39611 4.21929 7.7643 4.1441 7.8662C4.07934 7.95399 4.02605 8.11235 4.01262 8.25693C3.97664 8.644 4.26506 9.00447 4.67256 9.08174C4.81627 9.10899 13.2086 9.10787 13.3768 9.08057C13.8097 9.01035 14.0889 8.65866 14.059 8.22135C14.0342 7.85939 13.7762 7.57335 13.4061 7.49748C13.3171 7.47924 12.5665 7.47721 9.99024 7.48825L6.68845 7.50241L7.21855 6.9558C7.85265 6.30199 7.8513 6.30407 7.8513 5.98026C7.8513 5.79212 7.84595 5.75889 7.79984 5.6605C7.72733 5.50576 7.57628 5.35284 7.42326 5.27924C7.25525 5.19844 7.01504 5.18483 6.8412 5.24629ZM4.59698 10.0826C4.20639 10.1913 3.9515 10.5883 4.01907 10.9827C4.07331 11.2993 4.30062 11.5495 4.60652 11.6292C4.70831 11.6558 5.08937 11.659 8.03263 11.6586C9.85399 11.6583 11.3522 11.6582 11.362 11.6584C11.3717 11.6585 11.1476 11.8927 10.864 12.1787C10.4065 12.6401 10.3409 12.714 10.2834 12.8325C10.223 12.957 10.2186 12.9791 10.2183 13.1569C10.2181 13.3315 10.2232 13.3584 10.2774 13.4719C10.3633 13.6512 10.4714 13.7636 10.6367 13.8453C10.8759 13.9635 11.1586 13.9554 11.3821 13.824C11.4243 13.7992 12.0131 13.2224 12.6907 12.5422C14.0062 11.2217 14.0027 11.2257 14.0529 10.9859C14.132 10.6074 13.8928 10.21 13.5158 10.0935C13.3934 10.0558 13.3422 10.0553 9.03746 10.057C5.61254 10.0584 4.66453 10.0638 4.59698 10.0826Z" fill="black"/>
</svg>
