<svg width="15" height="14" viewBox="0 0 15 14" fill="none" xmlns="http://www.w3.org/2000/svg">
<path fill-rule="evenodd" clip-rule="evenodd" d="M12.3425 0.517455L12.0608 0.803464L12.9755 1.71668L13.8901 2.6299L14.1867 2.32873L14.4833 2.02762L13.5867 1.1295C13.0936 0.635562 12.6753 0.231445 12.6572 0.231445C12.6391 0.231445 12.4975 0.360158 12.3425 0.517455ZM11.1441 1.7159L10.8624 2.00191L11.777 2.91513L12.6917 3.82834L12.9883 3.52717L13.2849 3.22606L12.3883 2.32795C11.8952 1.83401 11.4769 1.42989 11.4588 1.42989C11.4406 1.42989 11.299 1.55861 11.1441 1.7159ZM2.05407 2.01336C1.89342 2.07004 1.66362 2.23039 1.48037 2.41358C0.947305 2.94671 0.973851 2.66369 0.973851 7.81162C0.973851 12.9583 0.947485 12.6767 1.4793 13.2085C2.01111 13.7403 1.72953 13.714 6.8762 13.714C12.0229 13.714 11.7413 13.7403 12.2731 13.2085C12.7979 12.6838 12.7786 12.8602 12.7786 8.59571V4.87705L11.9396 5.71434L11.1007 6.55163V9.29392V12.0361H6.8762H2.65168V7.81162V3.5871H5.3939H8.13619L8.97348 2.74818L9.81078 1.90927L6.06647 1.914C2.81658 1.91808 2.28669 1.9312 2.05407 2.01336ZM7.56531 5.29488L4.89924 7.96143L5.81294 8.87506L6.72657 9.78876L9.40756 7.10771L12.0886 4.42667L11.191 3.52753C10.6972 3.03299 10.2793 2.62834 10.2623 2.62834C10.2453 2.62834 9.03161 3.82828 7.56531 5.29488ZM4.3295 9.51941V10.3583H5.18262H6.03567L5.19838 9.51941C4.73787 9.05801 4.35395 8.6805 4.34526 8.6805C4.33663 8.6805 4.3295 9.05801 4.3295 9.51941Z" fill="#023FDD"/>
</svg>
