<svg width="14" height="14" viewBox="0 0 14 14" fill="none" xmlns="http://www.w3.org/2000/svg">
<path fill-rule="evenodd" clip-rule="evenodd" d="M2.43272 0.0238527C2.32245 0.0556464 2.19324 0.1967 2.1625 0.318807C2.14385 0.39291 2.13651 0.948626 2.13651 2.29077V4.15958L1.81701 4.38187C1.64127 4.50413 1.41678 4.65913 1.31813 4.72628C0.73154 5.12563 0.188492 5.50632 0.133403 5.5568C0.0983804 5.58888 0.0529769 5.64538 0.0325062 5.68238C-0.00188836 5.74451 -0.00408577 6.05141 0.00373932 9.70703C0.0129994 14.0434 0.00378416 13.7697 0.144501 13.8881C0.180689 13.9186 0.249008 13.9539 0.296317 13.9667C0.354792 13.9824 2.5125 13.988 7.03854 13.9841C13.3447 13.9786 13.6986 13.9762 13.767 13.9388C13.854 13.8913 13.922 13.8218 13.9684 13.7332C13.999 13.6748 14.0024 13.2309 13.9989 9.73143C13.9952 5.97603 13.9931 5.79108 13.9541 5.70289C13.9118 5.60738 13.7937 5.51494 13.1381 5.06447C13.0045 4.97269 12.8611 4.8724 12.8194 4.84157C12.7777 4.81074 12.5465 4.64931 12.3056 4.48283L11.8676 4.18014L11.867 2.26311C11.8665 0.451811 11.8642 0.341072 11.8253 0.255466C11.775 0.144884 11.67 0.0529334 11.5584 0.0219469C11.4487 -0.00852384 2.53857 -0.0066853 2.43272 0.0238527ZM11.0076 1.02432C10.9997 1.10757 10.9931 2.51254 10.9929 4.14651L10.9926 7.11735L10.7191 7.30793C10.5687 7.41276 10.343 7.56914 10.2175 7.65547C9.94068 7.84585 8.99741 8.50147 8.62934 8.75932C8.48237 8.86228 8.34921 8.9436 8.33345 8.94001C8.31768 8.93643 8.06968 8.75089 7.7823 8.52773C7.49493 8.30455 7.22753 8.10529 7.18807 8.08491C7.1471 8.06374 7.06385 8.04784 6.99412 8.04784C6.84675 8.04784 6.82771 8.05968 6.23964 8.51733C6.0115 8.69486 5.78803 8.86874 5.74305 8.90369L5.66126 8.96728L4.72287 8.31807C4.20675 7.96098 3.67005 7.59015 3.53016 7.49399C3.39028 7.39782 3.21624 7.27614 3.14339 7.22361L3.01095 7.12805V4.00052V0.872976H7.01643H11.0219L11.0076 1.02432ZM6.8226 1.72409C6.14706 1.78407 5.57007 2.04412 5.09381 2.50322C4.7429 2.84151 4.51819 3.18707 4.3796 3.6016C4.20202 4.13267 4.19929 4.81669 4.37254 5.36848C4.56485 5.98103 5.03628 6.56809 5.60063 6.89778C6.01052 7.13722 6.61816 7.28551 7.18946 7.28551C7.78078 7.28551 8.6895 7.05818 8.88912 6.86031C9.0338 6.71691 9.02739 6.50377 8.87436 6.36942C8.77125 6.27888 8.65719 6.25859 8.52688 6.30756C7.95511 6.52244 7.73713 6.56986 7.25982 6.58318C6.93939 6.59213 6.84244 6.58668 6.65141 6.54901C6.13679 6.44756 5.75966 6.212 5.45307 5.80056C5.14372 5.38543 5.01209 4.94133 5.03588 4.39314C5.05577 3.93498 5.16785 3.5909 5.41242 3.23712C5.63161 2.92003 6.01843 2.61503 6.36117 2.48905C6.90365 2.28963 7.56347 2.32315 8.06058 2.57539C8.43197 2.76382 8.6923 3.02286 8.86217 3.37297C9.00273 3.66268 9.02972 3.78308 9.03048 4.12409C9.0312 4.44406 9.00432 4.57875 8.89266 4.81487C8.80587 4.99839 8.59322 5.2331 8.45598 5.29682C8.35266 5.3448 8.20486 5.34619 8.15827 5.29962C8.10473 5.24606 8.11277 5.10424 8.22394 4.14404C8.27943 3.66469 8.32484 3.24909 8.32484 3.22046C8.32484 3.19185 8.30425 3.14633 8.27912 3.11936C8.23683 3.07396 8.21253 3.07028 7.95488 3.07028C7.70213 3.07028 7.67237 3.07456 7.63313 3.11667C7.60937 3.14218 7.58383 3.19351 7.57639 3.2307C7.56894 3.2679 7.55522 3.29454 7.54587 3.28987C7.21213 3.12335 7.17944 3.11153 7.02069 3.10001C6.44764 3.05842 5.91377 3.48342 5.74278 4.11736C5.68025 4.34918 5.67478 4.82243 5.73195 5.05458C5.84729 5.52292 6.18285 5.89727 6.57827 5.99868C6.87545 6.07489 7.21022 5.99195 7.43257 5.78698L7.53 5.69718L7.61529 5.78558C7.75957 5.93518 7.89847 5.99206 8.14546 6.00274C8.48921 6.0176 8.75829 5.92762 9.03596 5.70496C9.33208 5.46751 9.59207 5.06139 9.69636 4.67341C9.76584 4.41501 9.76645 3.81158 9.69748 3.55963C9.55165 3.02669 9.25387 2.59306 8.7997 2.25219C8.26062 1.84759 7.55482 1.65907 6.8226 1.72409ZM7.19275 3.89685C7.29668 3.94407 7.41876 4.07433 7.46722 4.18971C7.51405 4.30122 7.51096 4.58066 7.46123 4.73162C7.38464 4.9642 7.22096 5.16702 7.05314 5.23736C6.95556 5.27823 6.78688 5.2755 6.71294 5.23182C6.41 5.05287 6.38495 4.33893 6.67 4.00799C6.79482 3.86306 7.01522 3.8162 7.19275 3.89685ZM2.13151 6.19733L2.1253 6.52168L1.66084 6.20294C1.40537 6.0276 1.19602 5.8776 1.1956 5.86958C1.19517 5.86155 1.22761 5.83487 1.26768 5.81032C1.30775 5.78574 1.51712 5.64265 1.73293 5.49229L2.1253 5.21895L2.13151 5.54594C2.13492 5.72581 2.13492 6.01893 2.13151 6.19733ZM12.2037 5.46747C12.3579 5.57319 12.5446 5.70126 12.6185 5.75209C12.6925 5.80289 12.7531 5.85543 12.7531 5.86881C12.7531 5.8822 12.6824 5.94206 12.5961 6.00184C12.5098 6.06162 12.3231 6.19112 12.1813 6.28966C12.0395 6.38821 11.9109 6.47661 11.8955 6.48612C11.8733 6.4998 11.8674 6.37159 11.8674 5.87296C11.8674 5.37482 11.8733 5.24594 11.8955 5.25888C11.9109 5.26787 12.0496 5.36173 12.2037 5.46747ZM13.1454 9.67526C13.1454 11.5332 13.1374 12.6676 13.1244 12.6629C13.1128 12.6588 12.7728 12.3982 12.3687 12.0837C11.9647 11.7692 11.5223 11.4262 11.3856 11.3214C11.2489 11.2166 11.0113 11.0326 10.8576 10.9127C10.5035 10.6362 9.94867 10.2055 9.44956 9.81941L9.06084 9.51873L9.12223 9.47275C9.15602 9.44746 9.27129 9.36622 9.3784 9.29223C9.48551 9.21824 9.78416 9.0106 10.0421 8.83078C10.2999 8.65098 10.8237 8.28652 11.206 8.02087C11.5883 7.75522 12.1784 7.34488 12.5174 7.10901C12.8564 6.87312 13.1364 6.68013 13.1396 6.68013C13.1428 6.68013 13.1454 8.02793 13.1454 9.67526ZM1.55356 7.17903C1.58438 7.20258 1.83158 7.37399 2.10288 7.55995C2.37418 7.74592 2.69931 7.96961 2.82541 8.05704C3.13689 8.273 3.70265 8.66349 4.32261 9.09035C4.60624 9.28564 4.86151 9.46324 4.88989 9.48506L4.94146 9.5247L3.83608 10.3825C2.66541 11.2908 1.8301 11.939 1.7262 12.0195C1.69165 12.0462 1.48986 12.2028 1.27777 12.3674C1.06566 12.5319 0.884544 12.6666 0.875306 12.6666C0.866069 12.6666 0.85849 11.324 0.85849 9.68306V6.69944L1.178 6.91785C1.35374 7.03796 1.52273 7.15549 1.55356 7.17903ZM7.88076 9.69423C8.3408 10.051 8.81811 10.4217 8.94143 10.5181C9.22264 10.7379 9.64369 11.0651 10.1073 11.424C10.3047 11.5768 10.6679 11.8585 10.9145 12.0501C11.1612 12.2416 11.5691 12.5571 11.821 12.7511L12.2791 13.1039L9.27616 13.1202C7.62457 13.1292 5.24673 13.1343 3.99207 13.1315L1.71084 13.1263L1.88445 12.9902C2.03689 12.8707 2.65297 12.3925 4.22171 11.176C4.46218 10.9895 5.11296 10.4852 5.66789 10.0554C6.22282 9.6256 6.74244 9.22037 6.8226 9.15495C6.90276 9.0895 6.98542 9.03813 7.00632 9.04078C7.02722 9.04342 7.42071 9.33748 7.88076 9.69423Z" fill="#023FDD"/>
</svg>
