<svg width="15" height="15" viewBox="0 0 15 15" fill="none" xmlns="http://www.w3.org/2000/svg">
<path d="M7.2298 0.567789L7.25611 1.07644C6.55427 1.11276 5.90158 1.36046 5.36855 1.78875L7.2298 0.567789ZM7.2298 0.567789L7.25612 1.07644C7.5564 1.06091 7.90396 1.09596 8.21257 1.17461C8.70954 1.30127 9.18052 1.54974 9.55934 1.88379L7.2298 0.567789ZM4.41942 2.03243L4.82092 2.34588C4.75803 2.42643 4.62236 2.62965 4.5675 2.72614L4.56749 2.72615C4.35111 3.10672 4.20831 3.55049 4.15976 3.99872L4.15976 3.99873C4.14657 4.12047 4.14114 4.43321 4.15014 4.55649C4.2018 5.26461 4.45632 5.89451 4.91299 6.44265C4.98763 6.53223 5.21501 6.75926 5.30501 6.83403C5.9802 7.39496 6.80274 7.65714 7.66915 7.58987C8.07576 7.5583 8.4732 7.4493 8.83658 7.27004L9.06193 7.72684L8.83659 7.27003C8.99455 7.19211 9.06689 7.15062 9.20668 7.05827C9.98243 6.54579 10.5068 5.71835 10.6361 4.80774C10.6615 4.629 10.6646 4.58887 10.6647 4.33766C10.6649 4.06911 10.6584 3.99234 10.6235 3.78565L10.6235 3.78563C10.573 3.48693 10.4653 3.15658 10.3315 2.88888L10.7871 2.66109L10.3315 2.88887C10.2075 2.64101 10.0554 2.41262 9.87152 2.19902L9.87152 2.19901L4.41942 2.03243ZM4.41942 2.03243L4.82093 2.34588M4.41942 2.03243L4.82093 2.34588M7.0433 9.75302L7.04321 9.75302L6.83944 9.76349C6.83944 9.76349 6.83943 9.76349 6.83943 9.76349C5.19916 9.84674 3.71539 10.3511 2.63241 11.1636C2.1034 11.5604 1.70108 11.9996 1.433 12.4529L1.433 12.4529C1.3816 12.5398 1.28259 12.7411 1.25204 12.8186L7.0433 9.75302ZM7.0433 9.75302C7.1508 9.74729 7.89846 9.7564 8.04292 9.76605L7.0433 9.75302ZM4.82093 2.34588C4.97957 2.14267 5.17444 1.94473 5.36854 1.78876L4.82093 2.34588ZM1.12995 13.2977C1.14294 13.1574 1.18076 12.9996 1.25204 12.8186L8.04293 9.76605C8.51794 9.79778 8.91985 9.85078 9.33403 9.9353C10.7146 10.217 11.8901 10.8132 12.7137 11.6186C13.2709 12.1636 13.5938 12.7421 13.6687 13.191C13.6823 13.2727 13.6876 13.3201 13.6884 13.6363H7.40658H1.12484C1.12518 13.5632 1.12585 13.4939 1.12675 13.4353C1.12741 13.3924 1.12818 13.3564 1.12898 13.3293C1.12971 13.3045 1.13028 13.2949 1.13022 13.2949C1.1302 13.2949 1.13011 13.2959 1.12995 13.2977Z" stroke="#023FDD" stroke-width="1.01873"/>
</svg>
