<svg width="17" height="17" viewBox="0 0 17 17" fill="none" xmlns="http://www.w3.org/2000/svg">
<path fill-rule="evenodd" clip-rule="evenodd" d="M7.73221 0.266855C6.32889 0.429037 4.97977 0.973364 3.8275 1.84227C2.86489 2.56821 2.01675 3.59443 1.49522 4.66431C0.887498 5.91097 0.635884 7.08176 0.678418 8.46515C0.792703 12.1834 3.44888 15.3172 7.10213 16.0442C8.10366 16.2434 9.31617 16.237 10.3026 16.0271C11.8401 15.7 13.1783 14.9705 14.2972 13.8495C15.4355 12.7089 16.1738 11.3473 16.4793 9.82506C16.614 9.15398 16.6453 8.76195 16.626 7.99046C16.607 7.2319 16.559 6.86473 16.3953 6.22345C15.6094 3.14565 13.0567 0.822065 9.89942 0.310511C9.38615 0.227347 8.2689 0.204833 7.73221 0.266855ZM9.1978 2.0922C10.1906 2.18363 11.1709 2.51894 11.9804 3.04406C13.739 4.18478 14.7951 6.12074 14.7951 8.20356C14.7951 11.6858 11.9081 14.4691 8.43383 14.3361C7.91176 14.3161 7.58553 14.27 7.10422 14.1481C5.89467 13.842 4.77655 13.1338 3.95224 12.1517C2.12162 9.97063 2.03481 6.79276 3.74387 4.52396C5.0287 2.81836 7.09219 1.89828 9.1978 2.0922ZM7.71662 3.30786C7.71662 3.866 7.71325 3.90034 7.65825 3.90034C7.50352 3.90034 6.95944 4.07053 6.66579 4.21082C6.24495 4.41183 6.00812 4.58237 5.71082 4.89837C5.26615 5.37107 5.07357 5.91056 5.10485 6.59602C5.14485 7.4737 5.60056 8.09938 6.48537 8.49153C6.68438 8.57975 7.23856 8.74099 7.53732 8.79765L7.71662 8.83164V9.79818V10.7648L7.64646 10.7435C7.4792 10.6929 7.20448 10.5212 7.10338 10.4041C6.93409 10.208 6.81429 9.95204 6.71933 9.5834L6.68519 9.45087H5.82439H4.96359L4.98348 9.66513C5.0117 9.96854 5.13977 10.3848 5.30073 10.6962C5.72036 11.5082 6.58013 12.1726 7.50414 12.3991L7.71662 12.4511V13.0403V13.6294H8.54296H9.36931V13.0412V12.453L9.57979 12.4315C9.69554 12.4197 9.91251 12.3691 10.0619 12.3191C11.1173 11.9658 11.9009 11.1726 12.1165 10.2393C12.2346 9.72855 12.1694 9.14466 11.9451 8.70467C11.7155 8.25395 11.2607 7.86822 10.7116 7.65839C10.4315 7.55137 9.84151 7.40541 9.57979 7.3784L9.36931 7.35667V6.46652V5.57641L9.46535 5.59562C9.86674 5.67588 10.1722 6.03396 10.2873 6.55917L10.3062 6.64542L11.1552 6.63712L12.0043 6.62883L11.9955 6.44173C11.9518 5.50809 11.366 4.68196 10.4061 4.20013C10.1715 4.08235 9.74297 3.95004 9.48624 3.91608L9.33813 3.8965V3.30596V2.71539H8.52737H7.71662V3.30786ZM7.71662 6.32134V7.0585L7.55481 7.03932C7.30354 7.00957 7.07239 6.88125 6.9629 6.71078C6.87961 6.58112 6.87129 6.54554 6.88102 6.36031C6.89895 6.01818 7.09599 5.79207 7.49457 5.65618C7.60814 5.61748 7.70455 5.58545 7.70883 5.58502C7.7131 5.58458 7.71662 5.91593 7.71662 6.32134ZM9.85526 9.1836C10.4424 9.36262 10.6634 9.91481 10.3122 10.3252C10.1686 10.4929 10.0154 10.587 9.73078 10.6826C9.33317 10.8161 9.36931 10.8914 9.36931 9.92984V9.09913L9.53302 9.11718C9.62304 9.12713 9.76807 9.157 9.85526 9.1836Z" fill="#023FDD"/>
</svg>
