<svg width="16" height="15" viewBox="0 0 16 15" fill="none" xmlns="http://www.w3.org/2000/svg">
<path fill-rule="evenodd" clip-rule="evenodd" d="M7.78638 0.73311C5.75051 0.896786 3.76748 2.0762 2.61303 3.80982L2.30957 4.26544L1.45365 3.41138L0.597656 2.55732V5.00248V7.44771H3.04302H5.48845L4.43184 6.38957L3.3753 5.3315L3.62864 4.91435C4.35177 3.72395 5.67416 2.75647 7.08748 2.38379C7.76515 2.20513 8.93132 2.18623 9.63794 2.34252C11.7673 2.81345 13.4924 4.56011 13.9471 6.70541C14.0674 7.27325 14.0674 8.35436 13.9471 8.9222C13.5691 10.7054 12.319 12.2288 10.6367 12.9561C9.89734 13.2758 9.28237 13.3935 8.38544 13.3872C7.15171 13.3785 6.09617 13.0276 5.11404 12.2995C4.36348 11.743 3.67383 10.8769 3.28963 10.0082L3.12869 9.64427H2.36242C1.47854 9.64427 1.50949 9.61065 1.76569 10.2917C2.61596 12.5522 4.63566 14.2765 7.02092 14.7784C7.75796 14.9335 9.0703 14.9494 9.78325 14.812C12.478 14.2924 14.6376 12.2698 15.3576 9.59142C15.5127 9.01439 15.5312 8.82442 15.531 7.81381C15.5308 6.87408 15.5073 6.59731 15.3925 6.18097C14.9172 4.4576 14.0338 3.12676 12.6959 2.1186C11.7225 1.38515 10.3118 0.825631 9.25275 0.752879C8.97705 0.733975 8.67665 0.710345 8.58513 0.700361C8.49361 0.690443 8.13417 0.705154 7.78638 0.73311ZM7.32224 6.36608L7.32411 8.27974L9.05 9.29968C9.99924 9.8606 10.7997 10.3224 10.8287 10.3259C10.8578 10.3294 11.0089 10.1261 11.1645 9.87417C11.3874 9.51321 11.4297 9.39992 11.3642 9.33968C11.3184 9.29768 10.6444 8.883 9.86645 8.41819L8.452 7.57312V6.01276V4.45241H7.88623H7.32045L7.32224 6.36608Z" fill="#023FDD"/>
</svg>
