<svg width="22" height="19" viewBox="0 0 22 19" fill="none" xmlns="http://www.w3.org/2000/svg">
<path fill-rule="evenodd" clip-rule="evenodd" d="M1.29458 0.00692946C0.979914 0.0601369 0.642761 0.26945 0.442403 0.535983C0.272661 0.76178 0.204523 0.913613 0.0743523 1.35606L0 1.60883V7.45237V13.2959L0.0454615 13.5107C0.191318 14.1999 0.606189 14.7629 1.09552 14.9356L1.24064 14.9868L5.834 14.9873L10.4273 14.9877L10.4132 14.8744C10.3259 14.1759 10.2968 13.9713 10.283 13.9575C10.2741 13.9486 8.38155 13.9364 6.07736 13.9305L1.88794 13.9197L1.77803 13.8745C1.4516 13.7403 1.21298 13.4761 1.10488 13.1293C1.07161 13.0225 1.06827 12.5876 1.06214 7.57622C1.05722 3.54292 1.06195 2.09244 1.08048 1.95878C1.14167 1.51756 1.45309 1.17851 1.89872 1.06799C1.99791 1.0434 3.36061 1.03856 10.1949 1.03856H18.3723L18.5304 1.09035C18.887 1.20714 19.135 1.4502 19.274 1.81894L19.3215 1.94477L19.3216 5.33535C19.3217 8.65978 19.3225 8.72682 19.3635 8.7722C19.3865 8.79764 19.5572 8.91037 19.7427 9.02268C19.9283 9.135 20.1425 9.27031 20.2187 9.32337L20.3573 9.41984L20.363 5.33708C20.3685 1.3284 20.3679 1.25178 20.3261 1.11408C20.2719 0.935082 20.1838 0.797295 20.0042 0.610745C19.745 0.341342 19.4412 0.161266 19.0751 0.0600074L18.8686 0.00289467L10.1086 0.000348652C5.29054 -0.00105382 1.32425 0.00190215 1.29458 0.00692946ZM6.82894 2.19491C6.26383 2.26352 5.82949 2.45536 5.47722 2.79193C4.96245 3.28376 4.70128 4.00169 4.64242 5.08675C4.62583 5.3929 4.61891 5.4332 4.56686 5.52628C4.40687 5.81254 4.40426 6.13664 4.55957 6.43267C4.62467 6.55673 4.67615 6.61643 4.81478 6.72848C4.90341 6.80013 4.92 6.82842 4.97287 6.99801C5.08526 7.35849 5.2492 7.61083 5.5101 7.82495C5.73363 8.00841 5.76746 8.0887 5.77814 8.46085C5.78524 8.70773 5.78062 8.75623 5.73963 8.86545C5.59647 9.24686 5.18045 9.51878 4.34765 9.77528C3.79024 9.94697 3.55124 10.0422 3.36206 10.168C2.96736 10.4303 2.86483 10.7278 2.86084 11.6218C2.85812 12.2324 2.92065 12.4967 3.08834 12.5835C3.20095 12.6417 3.85765 12.7603 4.44474 12.8284C6.46408 13.0628 7.17312 13.0778 9.07288 12.9268C9.44607 12.8972 9.89628 12.8493 10.1032 12.8172L10.1841 12.8047V11.2889V9.77317L9.94133 9.70192C9.16024 9.47263 8.79375 9.20655 8.68224 8.78773C8.66597 8.72661 8.65253 8.58856 8.6524 8.48096C8.65195 8.14094 8.75003 7.92017 8.97083 7.76426C9.22297 7.58623 9.34632 7.40268 9.47233 7.01795C9.54487 6.79649 9.55011 6.78889 9.70939 6.67372C9.8245 6.5905 9.93516 6.41599 9.96701 6.26752C9.97959 6.20885 9.98988 6.07838 9.98988 5.97762C9.98988 5.80976 9.98175 5.77465 9.89279 5.55882C9.80616 5.34862 9.79569 5.3051 9.79569 5.15502C9.79569 4.78522 9.69253 4.16171 9.56679 3.77158C9.48542 3.5191 9.33696 3.23651 9.18435 3.04366C8.72123 2.45842 7.69728 2.08944 6.82894 2.19491ZM11.2413 3.80377C11.0702 3.8214 11.0209 3.83808 10.9462 3.90372C10.6808 4.13672 10.7705 4.53657 11.1093 4.63069C11.2268 4.66334 16.8647 4.66049 16.9612 4.62773C17.0837 4.58618 17.1557 4.52207 17.2095 4.40662C17.2695 4.27766 17.2731 4.21718 17.228 4.08955C17.1858 3.96985 17.124 3.90318 17.0022 3.84596L16.9051 3.80034L14.111 3.79816C12.5742 3.79698 11.2828 3.7995 11.2413 3.80377ZM11.1386 5.94847C11.0154 5.97279 10.9277 6.02748 10.8634 6.12022C10.7249 6.32012 10.7964 6.61497 11.0112 6.72984L11.1011 6.77789H14.0247H16.9483L17.0421 6.72418C17.1499 6.66243 17.2305 6.54012 17.252 6.40537C17.2839 6.20601 17.1266 5.99441 16.9125 5.94847C16.783 5.9207 11.2794 5.9207 11.1386 5.94847ZM11.1226 8.08186C10.8948 8.13733 10.7712 8.30856 10.7933 8.53835C10.807 8.68127 10.8886 8.79874 11.0187 8.8628L11.1226 8.91395H11.9749H12.8272L12.9278 8.85481C13.0576 8.7785 13.1199 8.67676 13.1329 8.51965C13.1503 8.30973 13.0297 8.14214 12.8189 8.08361C12.7295 8.05877 11.2239 8.05722 11.1226 8.08186ZM15.7687 8.68762C14.5795 8.79457 13.4943 9.29968 12.6653 10.1321C11.8967 10.9039 11.3967 11.8973 11.2315 12.9811C11.0308 14.2983 11.3868 15.6966 12.1984 16.7785C12.3916 17.0359 12.7869 17.4451 13.042 17.6516C13.7992 18.2645 14.7178 18.6442 15.6851 18.7442C15.9917 18.7758 16.6532 18.7577 16.9375 18.7099C17.7427 18.5744 18.5058 18.2439 19.1702 17.7429C19.4093 17.5626 19.9198 17.0472 20.104 16.8001C20.6392 16.0824 20.958 15.3207 21.0926 14.4375C21.1473 14.0794 21.1484 13.3494 21.0948 13.0027C20.9637 12.1536 20.6573 11.3973 20.1771 10.7372C19.3646 9.62022 18.1398 8.8929 16.7649 8.71079C16.5211 8.67849 16.0039 8.66647 15.7687 8.68762ZM16.8188 9.6652C18.1736 9.92028 19.229 10.7257 19.8209 11.9562C20.4976 13.3632 20.2894 15.0952 19.2955 16.3258C19.1084 16.5574 18.7285 16.9161 18.4903 17.0861C18.2284 17.273 17.7273 17.5254 17.4189 17.6258C15.9196 18.1138 14.2734 17.682 13.1974 16.5187C11.8198 15.0293 11.7368 12.771 13.0003 11.1579C13.1489 10.9682 13.497 10.6175 13.6733 10.4799C14.2414 10.0366 14.9184 9.74689 15.621 9.64634C15.8833 9.60878 16.5772 9.61972 16.8188 9.6652ZM18.3726 11.3442C18.3253 11.3553 18.2543 11.3859 18.2149 11.4122C18.1298 11.4689 18.112 11.4928 16.7225 13.4126C16.1256 14.2374 15.6244 14.926 15.6087 14.9428C15.5759 14.978 15.582 14.9834 14.5101 13.9727C14.1102 13.5955 13.8066 13.326 13.755 13.3023C13.6431 13.2508 13.4575 13.2506 13.345 13.3019C13.0869 13.4194 12.9793 13.76 13.1245 14.0002C13.1508 14.0438 13.474 14.364 13.8427 14.7116C15.5197 16.293 15.4374 16.2248 15.667 16.2248C15.8264 16.2248 15.954 16.1509 16.0809 15.9853C16.319 15.6744 18.8726 12.1396 18.9214 12.0533C19.0005 11.9136 18.9992 11.7145 18.9185 11.5771C18.8448 11.4518 18.7262 11.3695 18.5791 11.3416C18.5155 11.3296 18.4624 11.3207 18.4611 11.3219C18.4597 11.3231 18.4199 11.3331 18.3726 11.3442Z" fill="#6B6B6B"/>
</svg>
