<svg width="27" height="19" viewBox="0 0 27 19" fill="none" xmlns="http://www.w3.org/2000/svg">
<path fill-rule="evenodd" clip-rule="evenodd" d="M16.1017 9.5C16.1017 14.725 16.2122 19 16.3474 19C16.4823 19 18.7285 16.8607 21.3389 14.2461L26.0847 9.49195L21.3309 4.74614C18.7163 2.13573 16.4701 0 16.3394 0C16.2086 0 16.1017 4.275 16.1017 9.5ZM0 9.5V14.8136H1.44915H2.8983V9.5V4.18644H1.44915H0V9.5ZM5.47458 9.5V14.8136H6.92373H8.37288V9.5V4.18644H6.92373H5.47458V9.5ZM10.9492 9.5V14.8136H12.2373H13.5254V9.5V4.18644H12.2373H10.9492V9.5Z" fill="#6B6B6B"/>
</svg>
